<?xml version="1.0" encoding="utf-8" standalone="no"?>
<!DOCTYPE svg PUBLIC "-//W3C//DTD SVG 1.1//EN"
  "http://www.w3.org/Graphics/SVG/1.1/DTD/svg11.dtd">
<svg height="345.6pt" version="1.1" viewBox="0 0 460.8 345.6" width="460.8pt" xmlns="http://www.w3.org/2000/svg" xmlns:xlink="http://www.w3.org/1999/xlink">
 <metadata>
  <rdf:RDF xmlns:cc="http://creativecommons.org/ns#" xmlns:dc="http://purl.org/dc/elements/1.1/" xmlns:rdf="http://www.w3.org/1999/02/22-rdf-syntax-ns#">
   <cc:Work>
    <dc:type rdf:resource="http://purl.org/dc/dcmitype/StillImage"/>
    <dc:date>2021-11-03T21:49:06.460352</dc:date>
    <dc:format>image/svg+xml</dc:format>
    <dc:creator>
     <cc:Agent>
      <dc:title>Matplotlib v3.4.3, https://matplotlib.org/</dc:title>
     </cc:Agent>
    </dc:creator>
   </cc:Work>
  </rdf:RDF>
 </metadata>
 <defs>
  <style type="text/css">*{stroke-linecap:butt;stroke-linejoin:round;}</style>
 </defs>
 <g id="figure_1">
  <g id="patch_1">
   <path d="M 0 345.6 
L 460.8 345.6 
L 460.8 0 
L 0 0 
z
" style="fill:#ffffff;"/>
  </g>
  <g id="axes_1">
   <g id="patch_2">
    <path d="M 57.6 307.584 
L 414.72 307.584 
L 414.72 41.472 
L 57.6 41.472 
z
" style="fill:#ffffff;"/>
   </g>
   <g id="patch_3">
    <path clip-path="url(#pab072abca4)" d="M 302.981909 158.009654 
L 316.845603 186.792767 
" style="fill:none;stroke:#000000;stroke-linecap:round;"/>
   </g>
   <g id="patch_4">
    <path clip-path="url(#pab072abca4)" d="M 298.90155 157.339001 
L 255.078767 202.111534 
" style="fill:none;stroke:#000000;stroke-linecap:round;"/>
   </g>
   <g id="patch_5">
    <path clip-path="url(#pab072abca4)" d="M 297.819748 154.74773 
L 270.572587 154.607362 
" style="fill:none;stroke:#000000;stroke-linecap:round;"/>
   </g>
   <g id="patch_6">
    <path clip-path="url(#pab072abca4)" d="M 304.427465 152.788055 
L 349.145511 123.376798 
" style="fill:none;stroke:#000000;stroke-linecap:round;"/>
   </g>
   <g id="patch_7">
    <path clip-path="url(#pab072abca4)" d="M 303.99593 152.251709 
L 349.999614 107.349148 
" style="fill:none;stroke:#000000;stroke-linecap:round;"/>
   </g>
   <g id="patch_8">
    <path clip-path="url(#pab072abca4)" d="M 301.685555 151.176105 
L 305.575641 98.643253 
" style="fill:none;stroke:#000000;stroke-linecap:round;"/>
   </g>
   <g id="patch_9">
    <path clip-path="url(#pab072abca4)" d="M 304.096576 157.173418 
L 344.581812 193.579205 
" style="fill:none;stroke:#000000;stroke-linecap:round;"/>
   </g>
   <g id="patch_10">
    <path clip-path="url(#pab072abca4)" d="M 300.397171 158.218004 
L 283.278018 216.006733 
" style="fill:none;stroke:#000000;stroke-linecap:round;"/>
   </g>
   <g id="patch_11">
    <path clip-path="url(#pab072abca4)" d="M 304.947317 154.047997 
L 389.845359 136.761408 
" style="fill:none;stroke:#000000;stroke-linecap:round;"/>
   </g>
   <g id="patch_12">
    <path clip-path="url(#pab072abca4)" d="M 298.55374 152.587682 
L 234.229752 103.691043 
" style="fill:none;stroke:#000000;stroke-linecap:round;"/>
   </g>
   <g id="patch_13">
    <path clip-path="url(#pab072abca4)" d="M 299.155631 151.967349 
L 265.215241 110.008974 
" style="fill:none;stroke:#000000;stroke-linecap:round;"/>
   </g>
   <g id="patch_14">
    <path clip-path="url(#pab072abca4)" d="M 298.452851 156.805345 
L 255.986741 185.991646 
" style="fill:none;stroke:#000000;stroke-linecap:round;"/>
   </g>
   <g id="patch_15">
    <path clip-path="url(#pab072abca4)" d="M 304.84207 155.883141 
L 395.064903 185.326708 
" style="fill:none;stroke:#000000;stroke-linecap:round;"/>
   </g>
   <g id="patch_16">
    <path clip-path="url(#pab072abca4)" d="M 298.076532 156.101649 
L 234.14405 181.638434 
" style="fill:none;stroke:#000000;stroke-linecap:round;"/>
   </g>
   <g id="patch_17">
    <path clip-path="url(#pab072abca4)" d="M 304.993878 155.19669 
L 389.258544 165.344128 
" style="fill:none;stroke:#000000;stroke-linecap:round;"/>
   </g>
   <g id="patch_18">
    <path clip-path="url(#pab072abca4)" d="M 297.882302 155.434715 
L 194.011011 175.062607 
" style="fill:none;stroke:#000000;stroke-linecap:round;"/>
   </g>
   <g id="patch_19">
    <path clip-path="url(#pab072abca4)" d="M 314.893712 190.817879 
L 256.074715 203.902526 
" style="fill:none;stroke:#000000;stroke-linecap:round;"/>
   </g>
   <g id="patch_20">
    <path clip-path="url(#pab072abca4)" d="M 315.443566 187.993292 
L 269.93688 156.63167 
" style="fill:none;stroke:#000000;stroke-linecap:round;"/>
   </g>
   <g id="patch_21">
    <path clip-path="url(#pab072abca4)" d="M 321.933607 190.763306 
L 343.732892 195.259189 
" style="fill:none;stroke:#000000;stroke-linecap:round;"/>
   </g>
   <g id="patch_22">
    <path clip-path="url(#pab072abca4)" d="M 314.809503 189.925787 
L 256.6182 188.141075 
" style="fill:none;stroke:#000000;stroke-linecap:round;"/>
   </g>
   <g id="patch_23">
    <path clip-path="url(#pab072abca4)" d="M 322.004194 189.874803 
L 394.89089 186.604916 
" style="fill:none;stroke:#000000;stroke-linecap:round;"/>
   </g>
   <g id="patch_24">
    <path clip-path="url(#pab072abca4)" d="M 314.819452 189.746874 
L 234.389241 183.26308 
" style="fill:none;stroke:#000000;stroke-linecap:round;"/>
   </g>
   <g id="patch_25">
    <path clip-path="url(#pab072abca4)" d="M 321.830539 188.920379 
L 389.409993 166.89031 
" style="fill:none;stroke:#000000;stroke-linecap:round;"/>
   </g>
   <g id="patch_26">
    <path clip-path="url(#pab072abca4)" d="M 317.000371 193.349621 
L 294.873176 245.442722 
" style="fill:none;stroke:#000000;stroke-linecap:round;"/>
   </g>
   <g id="patch_27">
    <path clip-path="url(#pab072abca4)" d="M 253.555934 201.224585 
L 265.977317 158.04849 
" style="fill:none;stroke:#000000;stroke-linecap:round;"/>
   </g>
   <g id="patch_28">
    <path clip-path="url(#pab072abca4)" d="M 256.145526 204.354989 
L 343.673778 196.315618 
" style="fill:none;stroke:#000000;stroke-linecap:round;"/>
   </g>
   <g id="patch_29">
    <path clip-path="url(#pab072abca4)" d="M 248.999638 204.155644 
L 151.481746 189.679446 
" style="fill:none;stroke:#000000;stroke-linecap:round;"/>
   </g>
   <g id="patch_30">
    <path clip-path="url(#pab072abca4)" d="M 248.961383 204.758564 
L 168.097756 206.427967 
" style="fill:none;stroke:#000000;stroke-linecap:round;"/>
   </g>
   <g id="patch_31">
    <path clip-path="url(#pab072abca4)" d="M 249.878831 207.085931 
L 206.982709 245.501539 
" style="fill:none;stroke:#000000;stroke-linecap:round;"/>
   </g>
   <g id="patch_32">
    <path clip-path="url(#pab072abca4)" d="M 253.723998 208.091097 
L 269.904364 255.473525 
" style="fill:none;stroke:#000000;stroke-linecap:round;"/>
   </g>
   <g id="patch_33">
    <path clip-path="url(#pab072abca4)" d="M 255.783727 206.287866 
L 279.032377 217.854855 
" style="fill:none;stroke:#000000;stroke-linecap:round;"/>
   </g>
   <g id="patch_34">
    <path clip-path="url(#pab072abca4)" d="M 252.65986 201.085627 
L 252.920648 191.629348 
" style="fill:none;stroke:#000000;stroke-linecap:round;"/>
   </g>
   <g id="patch_35">
    <path clip-path="url(#pab072abca4)" d="M 270.172326 156.238658 
L 344.058997 194.336506 
" style="fill:none;stroke:#000000;stroke-linecap:round;"/>
   </g>
   <g id="patch_36">
    <path clip-path="url(#pab072abca4)" d="M 266.668166 151.001714 
L 263.255642 110.797149 
" style="fill:none;stroke:#000000;stroke-linecap:round;"/>
   </g>
   <g id="patch_37">
    <path clip-path="url(#pab072abca4)" d="M 265.586444 157.911236 
L 254.406083 184.708296 
" style="fill:none;stroke:#000000;stroke-linecap:round;"/>
   </g>
   <g id="patch_38">
    <path clip-path="url(#pab072abca4)" d="M 349.02416 119.618511 
L 308.97061 96.83315 
" style="fill:none;stroke:#000000;stroke-linecap:round;"/>
   </g>
   <g id="patch_39">
    <path clip-path="url(#pab072abca4)" d="M 355.545543 122.603785 
L 389.980708 134.837923 
" style="fill:none;stroke:#000000;stroke-linecap:round;"/>
   </g>
   <g id="patch_40">
    <path clip-path="url(#pab072abca4)" d="M 349.052195 104.097082 
L 309.365143 95.790583 
" style="fill:none;stroke:#000000;stroke-linecap:round;"/>
   </g>
   <g id="patch_41">
    <path clip-path="url(#pab072abca4)" d="M 355.435168 107.021877 
L 390.51365 133.855834 
" style="fill:none;stroke:#000000;stroke-linecap:round;"/>
   </g>
   <g id="patch_42">
    <path clip-path="url(#pab072abca4)" d="M 353.257262 101.29966 
L 361.776969 57.102921 
" style="fill:none;stroke:#000000;stroke-linecap:round;"/>
   </g>
   <g id="patch_43">
    <path clip-path="url(#pab072abca4)" d="M 308.745384 92.925307 
L 359.5545 55.695776 
" style="fill:none;stroke:#000000;stroke-linecap:round;"/>
   </g>
   <g id="patch_44">
    <path clip-path="url(#pab072abca4)" d="M 283.542002 222.820735 
L 292.179223 245.393923 
" style="fill:none;stroke:#000000;stroke-linecap:round;"/>
   </g>
   <g id="patch_45">
    <path clip-path="url(#pab072abca4)" d="M 278.873595 220.692477 
L 207.682818 246.669195 
" style="fill:none;stroke:#000000;stroke-linecap:round;"/>
   </g>
   <g id="patch_46">
    <path clip-path="url(#pab072abca4)" d="M 278.714073 220.10528 
L 191.623975 236.011761 
" style="fill:none;stroke:#000000;stroke-linecap:round;"/>
   </g>
   <g id="patch_47">
    <path clip-path="url(#pab072abca4)" d="M 267.590267 257.949163 
L 191.560039 237.589779 
" style="fill:none;stroke:#000000;stroke-linecap:round;"/>
   </g>
   <g id="patch_48">
    <path clip-path="url(#pab072abca4)" d="M 250.138292 190.188582 
L 190.964159 234.500713 
" style="fill:none;stroke:#000000;stroke-linecap:round;"/>
   </g>
   <g id="patch_49">
    <path clip-path="url(#pab072abca4)" d="M 155.143233 284.922159 
L 201.42516 250.068848 
" style="fill:none;stroke:#000000;stroke-linecap:round;"/>
   </g>
   <g id="patch_50">
    <path clip-path="url(#pab072abca4)" d="M 154.351989 284.152702 
L 185.99804 239.593673 
" style="fill:none;stroke:#000000;stroke-linecap:round;"/>
   </g>
   <g id="patch_51">
    <path clip-path="url(#pab072abca4)" d="M 129.115617 273.520958 
L 200.893299 249.064284 
" style="fill:none;stroke:#000000;stroke-linecap:round;"/>
   </g>
   <g id="patch_52">
    <path clip-path="url(#pab072abca4)" d="M 128.781874 272.808197 
L 185.008678 238.532413 
" style="fill:none;stroke:#000000;stroke-linecap:round;"/>
   </g>
   <g id="patch_53">
    <path clip-path="url(#pab072abca4)" d="M 184.974895 291.075358 
L 202.830034 251.189011 
" style="fill:none;stroke:#000000;stroke-linecap:round;"/>
   </g>
   <g id="patch_54">
    <path clip-path="url(#pab072abca4)" d="M 183.788762 290.772438 
L 187.797803 240.247299 
" style="fill:none;stroke:#000000;stroke-linecap:round;"/>
   </g>
   <g id="patch_55">
    <path clip-path="url(#pab072abca4)" d="M 228.55933 185.790801 
L 190.324111 233.841586 
" style="fill:none;stroke:#000000;stroke-linecap:round;"/>
   </g>
   <g id="patch_56">
    <path clip-path="url(#pab072abca4)" d="M 246.424066 288.702507 
L 206.886819 250.407836 
" style="fill:none;stroke:#000000;stroke-linecap:round;"/>
   </g>
   <g id="patch_57">
    <path clip-path="url(#pab072abca4)" d="M 246.327848 288.805826 
L 190.764672 239.059885 
" style="fill:none;stroke:#000000;stroke-linecap:round;"/>
   </g>
   <g id="patch_58">
    <path clip-path="url(#pab072abca4)" d="M 215.849417 292.00542 
L 205.212863 251.385791 
" style="fill:none;stroke:#000000;stroke-linecap:round;"/>
   </g>
   <g id="patch_59">
    <path clip-path="url(#pab072abca4)" d="M 215.183853 292.252033 
L 189.660063 239.894546 
" style="fill:none;stroke:#000000;stroke-linecap:round;"/>
   </g>
   <g id="patch_60">
    <path clip-path="url(#pab072abca4)" d="M 101.635391 214.032378 
L 87.851086 165.951362 
" style="fill:none;stroke:#000000;stroke-linecap:round;"/>
   </g>
   <g id="patch_61">
    <path clip-path="url(#pab072abca4)" d="M 105.679274 215.583336 
L 144.868999 191.060467 
" style="fill:none;stroke:#000000;stroke-linecap:round;"/>
   </g>
   <g id="patch_62">
    <path clip-path="url(#pab072abca4)" d="M 106.076536 218.524567 
L 200.851893 246.871615 
" style="fill:none;stroke:#000000;stroke-linecap:round;"/>
   </g>
   <g id="patch_63">
    <path clip-path="url(#pab072abca4)" d="M 106.140243 218.280798 
L 184.569821 235.870752 
" style="fill:none;stroke:#000000;stroke-linecap:round;"/>
   </g>
   <g id="patch_64">
    <path clip-path="url(#pab072abca4)" d="M 103.886289 220.865725 
L 114.367988 248.950111 
" style="fill:none;stroke:#000000;stroke-linecap:round;"/>
   </g>
   <g id="patch_65">
    <path clip-path="url(#pab072abca4)" d="M 119.568207 139.648066 
L 89.810483 160.429561 
" style="fill:none;stroke:#000000;stroke-linecap:round;"/>
   </g>
   <g id="patch_66">
    <path clip-path="url(#pab072abca4)" d="M 124.110573 140.816283 
L 146.329913 185.921407 
" style="fill:none;stroke:#000000;stroke-linecap:round;"/>
   </g>
   <g id="patch_67">
    <path clip-path="url(#pab072abca4)" d="M 125.658967 139.348996 
L 187.334365 173.96891 
" style="fill:none;stroke:#000000;stroke-linecap:round;"/>
   </g>
   <g id="patch_68">
    <path clip-path="url(#pab072abca4)" d="M 90.429935 162.94708 
L 186.902649 175.274735 
" style="fill:none;stroke:#000000;stroke-linecap:round;"/>
   </g>
   <g id="patch_69">
    <path clip-path="url(#pab072abca4)" d="M 77.382425 245.861652 
L 112.077075 251.723159 
" style="fill:none;stroke:#000000;stroke-linecap:round;"/>
   </g>
   <g id="patch_70">
    <path clip-path="url(#pab072abca4)" d="M 77.422563 244.99162 
L 184.492723 236.928905 
" style="fill:none;stroke:#000000;stroke-linecap:round;"/>
   </g>
   <g id="patch_71">
    <path clip-path="url(#pab072abca4)" d="M 150.244909 191.900079 
L 185.758417 233.909331 
" style="fill:none;stroke:#000000;stroke-linecap:round;"/>
   </g>
   <g id="patch_72">
    <path clip-path="url(#pab072abca4)" d="M 166.820678 203.751346 
L 188.151457 178.481973 
" style="fill:none;stroke:#000000;stroke-linecap:round;"/>
   </g>
   <g id="patch_73">
    <path clip-path="url(#pab072abca4)" d="M 166.716268 209.338046 
L 185.864815 233.822806 
" style="fill:none;stroke:#000000;stroke-linecap:round;"/>
   </g>
   <g id="patch_74">
    <path clip-path="url(#pab072abca4)" d="M 119.222309 252.143657 
L 200.705387 248.082418 
" style="fill:none;stroke:#000000;stroke-linecap:round;"/>
   </g>
   <g id="patch_75">
    <path clip-path="url(#pab072abca4)" d="M 119.145482 251.562151 
L 184.56385 237.419292 
" style="fill:none;stroke:#000000;stroke-linecap:round;"/>
   </g>
   <g id="patch_76">
    <path clip-path="url(#pab072abca4)" d="M 289.865901 248.721759 
L 207.900759 247.937648 
" style="fill:none;stroke:#000000;stroke-linecap:round;"/>
   </g>
   <g id="patch_77">
    <path clip-path="url(#pab072abca4)" d="M 289.889225 248.345626 
L 191.65907 237.06915 
" style="fill:none;stroke:#000000;stroke-linecap:round;"/>
   </g>
   <g id="patch_78">
    <path clip-path="url(#pab072abca4)" d="M 191.151009 179.26674 
L 203.623528 244.367516 
" style="fill:none;stroke:#000000;stroke-linecap:round;"/>
   </g>
   <g id="patch_79">
    <path clip-path="url(#pab072abca4)" d="M 190.332442 179.328277 
L 188.22373 233.061348 
" style="fill:none;stroke:#000000;stroke-linecap:round;"/>
   </g>
   <g id="patch_80">
    <path clip-path="url(#pab072abca4)" d="M 201.342444 245.852016 
L 191.041039 238.709773 
" style="fill:none;stroke:#000000;stroke-linecap:round;"/>
   </g>
   <g id="matplotlib.axis_1">
    <g id="xtick_1">
     <g id="line2d_1">
      <defs>
       <path d="M 0 0 
L 0 3.5 
" id="mbf867c65f0" style="stroke:#000000;stroke-width:0.8;"/>
      </defs>
      <g>
       <use style="stroke:#000000;stroke-width:0.8;" x="62.142369" xlink:href="#mbf867c65f0" y="307.584"/>
      </g>
     </g>
     <g id="text_1">
      <!-- −2 -->
      <g transform="translate(54.771275 322.182437)scale(0.1 -0.1)">
       <defs>
        <path d="M 678 2272 
L 4684 2272 
L 4684 1741 
L 678 1741 
L 678 2272 
z
" id="DejaVuSans-2212" transform="scale(0.015625)"/>
        <path d="M 1228 531 
L 3431 531 
L 3431 0 
L 469 0 
L 469 531 
Q 828 903 1448 1529 
Q 2069 2156 2228 2338 
Q 2531 2678 2651 2914 
Q 2772 3150 2772 3378 
Q 2772 3750 2511 3984 
Q 2250 4219 1831 4219 
Q 1534 4219 1204 4116 
Q 875 4013 500 3803 
L 500 4441 
Q 881 4594 1212 4672 
Q 1544 4750 1819 4750 
Q 2544 4750 2975 4387 
Q 3406 4025 3406 3419 
Q 3406 3131 3298 2873 
Q 3191 2616 2906 2266 
Q 2828 2175 2409 1742 
Q 1991 1309 1228 531 
z
" id="DejaVuSans-32" transform="scale(0.015625)"/>
       </defs>
       <use xlink:href="#DejaVuSans-2212"/>
       <use x="83.789062" xlink:href="#DejaVuSans-32"/>
      </g>
     </g>
    </g>
    <g id="xtick_2">
     <g id="line2d_2">
      <g>
       <use style="stroke:#000000;stroke-width:0.8;" x="130.428996" xlink:href="#mbf867c65f0" y="307.584"/>
      </g>
     </g>
     <g id="text_2">
      <!-- −1 -->
      <g transform="translate(123.057902 322.182437)scale(0.1 -0.1)">
       <defs>
        <path d="M 794 531 
L 1825 531 
L 1825 4091 
L 703 3866 
L 703 4441 
L 1819 4666 
L 2450 4666 
L 2450 531 
L 3481 531 
L 3481 0 
L 794 0 
L 794 531 
z
" id="DejaVuSans-31" transform="scale(0.015625)"/>
       </defs>
       <use xlink:href="#DejaVuSans-2212"/>
       <use x="83.789062" xlink:href="#DejaVuSans-31"/>
      </g>
     </g>
    </g>
    <g id="xtick_3">
     <g id="line2d_3">
      <g>
       <use style="stroke:#000000;stroke-width:0.8;" x="198.715623" xlink:href="#mbf867c65f0" y="307.584"/>
      </g>
     </g>
     <g id="text_3">
      <!-- 0 -->
      <g transform="translate(195.534373 322.182437)scale(0.1 -0.1)">
       <defs>
        <path d="M 2034 4250 
Q 1547 4250 1301 3770 
Q 1056 3291 1056 2328 
Q 1056 1369 1301 889 
Q 1547 409 2034 409 
Q 2525 409 2770 889 
Q 3016 1369 3016 2328 
Q 3016 3291 2770 3770 
Q 2525 4250 2034 4250 
z
M 2034 4750 
Q 2819 4750 3233 4129 
Q 3647 3509 3647 2328 
Q 3647 1150 3233 529 
Q 2819 -91 2034 -91 
Q 1250 -91 836 529 
Q 422 1150 422 2328 
Q 422 3509 836 4129 
Q 1250 4750 2034 4750 
z
" id="DejaVuSans-30" transform="scale(0.015625)"/>
       </defs>
       <use xlink:href="#DejaVuSans-30"/>
      </g>
     </g>
    </g>
    <g id="xtick_4">
     <g id="line2d_4">
      <g>
       <use style="stroke:#000000;stroke-width:0.8;" x="267.00225" xlink:href="#mbf867c65f0" y="307.584"/>
      </g>
     </g>
     <g id="text_4">
      <!-- 1 -->
      <g transform="translate(263.821 322.182437)scale(0.1 -0.1)">
       <use xlink:href="#DejaVuSans-31"/>
      </g>
     </g>
    </g>
    <g id="xtick_5">
     <g id="line2d_5">
      <g>
       <use style="stroke:#000000;stroke-width:0.8;" x="335.288877" xlink:href="#mbf867c65f0" y="307.584"/>
      </g>
     </g>
     <g id="text_5">
      <!-- 2 -->
      <g transform="translate(332.107627 322.182437)scale(0.1 -0.1)">
       <use xlink:href="#DejaVuSans-32"/>
      </g>
     </g>
    </g>
    <g id="xtick_6">
     <g id="line2d_6">
      <g>
       <use style="stroke:#000000;stroke-width:0.8;" x="403.575504" xlink:href="#mbf867c65f0" y="307.584"/>
      </g>
     </g>
     <g id="text_6">
      <!-- 3 -->
      <g transform="translate(400.394254 322.182437)scale(0.1 -0.1)">
       <defs>
        <path d="M 2597 2516 
Q 3050 2419 3304 2112 
Q 3559 1806 3559 1356 
Q 3559 666 3084 287 
Q 2609 -91 1734 -91 
Q 1441 -91 1130 -33 
Q 819 25 488 141 
L 488 750 
Q 750 597 1062 519 
Q 1375 441 1716 441 
Q 2309 441 2620 675 
Q 2931 909 2931 1356 
Q 2931 1769 2642 2001 
Q 2353 2234 1838 2234 
L 1294 2234 
L 1294 2753 
L 1863 2753 
Q 2328 2753 2575 2939 
Q 2822 3125 2822 3475 
Q 2822 3834 2567 4026 
Q 2313 4219 1838 4219 
Q 1578 4219 1281 4162 
Q 984 4106 628 3988 
L 628 4550 
Q 988 4650 1302 4700 
Q 1616 4750 1894 4750 
Q 2613 4750 3031 4423 
Q 3450 4097 3450 3541 
Q 3450 3153 3228 2886 
Q 3006 2619 2597 2516 
z
" id="DejaVuSans-33" transform="scale(0.015625)"/>
       </defs>
       <use xlink:href="#DejaVuSans-33"/>
      </g>
     </g>
    </g>
   </g>
   <g id="matplotlib.axis_2">
    <g id="ytick_1">
     <g id="line2d_7">
      <defs>
       <path d="M 0 0 
L -3.5 0 
" id="mac0f55d871" style="stroke:#000000;stroke-width:0.8;"/>
      </defs>
      <g>
       <use style="stroke:#000000;stroke-width:0.8;" x="57.6" xlink:href="#mac0f55d871" y="307.344128"/>
      </g>
     </g>
     <g id="text_7">
      <!-- −3 -->
      <g transform="translate(35.857813 311.143347)scale(0.1 -0.1)">
       <use xlink:href="#DejaVuSans-2212"/>
       <use x="83.789062" xlink:href="#DejaVuSans-33"/>
      </g>
     </g>
    </g>
    <g id="ytick_2">
     <g id="line2d_8">
      <g>
       <use style="stroke:#000000;stroke-width:0.8;" x="57.6" xlink:href="#mac0f55d871" y="266.084518"/>
      </g>
     </g>
     <g id="text_8">
      <!-- −2 -->
      <g transform="translate(35.857813 269.883737)scale(0.1 -0.1)">
       <use xlink:href="#DejaVuSans-2212"/>
       <use x="83.789062" xlink:href="#DejaVuSans-32"/>
      </g>
     </g>
    </g>
    <g id="ytick_3">
     <g id="line2d_9">
      <g>
       <use style="stroke:#000000;stroke-width:0.8;" x="57.6" xlink:href="#mac0f55d871" y="224.824907"/>
      </g>
     </g>
     <g id="text_9">
      <!-- −1 -->
      <g transform="translate(35.857813 228.624126)scale(0.1 -0.1)">
       <use xlink:href="#DejaVuSans-2212"/>
       <use x="83.789062" xlink:href="#DejaVuSans-31"/>
      </g>
     </g>
    </g>
    <g id="ytick_4">
     <g id="line2d_10">
      <g>
       <use style="stroke:#000000;stroke-width:0.8;" x="57.6" xlink:href="#mac0f55d871" y="183.565297"/>
      </g>
     </g>
     <g id="text_10">
      <!-- 0 -->
      <g transform="translate(44.2375 187.364516)scale(0.1 -0.1)">
       <use xlink:href="#DejaVuSans-30"/>
      </g>
     </g>
    </g>
    <g id="ytick_5">
     <g id="line2d_11">
      <g>
       <use style="stroke:#000000;stroke-width:0.8;" x="57.6" xlink:href="#mac0f55d871" y="142.305687"/>
      </g>
     </g>
     <g id="text_11">
      <!-- 1 -->
      <g transform="translate(44.2375 146.104905)scale(0.1 -0.1)">
       <use xlink:href="#DejaVuSans-31"/>
      </g>
     </g>
    </g>
    <g id="ytick_6">
     <g id="line2d_12">
      <g>
       <use style="stroke:#000000;stroke-width:0.8;" x="57.6" xlink:href="#mac0f55d871" y="101.046076"/>
      </g>
     </g>
     <g id="text_12">
      <!-- 2 -->
      <g transform="translate(44.2375 104.845295)scale(0.1 -0.1)">
       <use xlink:href="#DejaVuSans-32"/>
      </g>
     </g>
    </g>
    <g id="ytick_7">
     <g id="line2d_13">
      <g>
       <use style="stroke:#000000;stroke-width:0.8;" x="57.6" xlink:href="#mac0f55d871" y="59.786466"/>
      </g>
     </g>
     <g id="text_13">
      <!-- 3 -->
      <g transform="translate(44.2375 63.585684)scale(0.1 -0.1)">
       <use xlink:href="#DejaVuSans-33"/>
      </g>
     </g>
    </g>
   </g>
   <g id="PathCollection_1">
    <path clip-path="url(#pab072abca4)" d="M 301.4197 157.266275 
C 302.082708 157.266275 302.71865 157.00286 303.187467 156.534042 
C 303.656285 156.065225 303.9197 155.429283 303.9197 154.766275 
C 303.9197 154.103268 303.656285 153.467326 303.187467 152.998508 
C 302.71865 152.529691 302.082708 152.266275 301.4197 152.266275 
C 300.756693 152.266275 300.120751 152.529691 299.651934 152.998508 
C 299.183116 153.467326 298.9197 154.103268 298.9197 154.766275 
C 298.9197 155.429283 299.183116 156.065225 299.651934 156.534042 
C 300.120751 157.00286 300.756693 157.266275 301.4197 157.266275 
z
" style="fill:#4682b4;stroke:#4682b4;"/>
    <path clip-path="url(#pab072abca4)" d="M 318.407811 192.536146 
C 319.070819 192.536146 319.706761 192.27273 320.175578 191.803913 
C 320.644395 191.335096 320.907811 190.699154 320.907811 190.036146 
C 320.907811 189.373138 320.644395 188.737197 320.175578 188.268379 
C 319.706761 187.799562 319.070819 187.536146 318.407811 187.536146 
C 317.744803 187.536146 317.108861 187.799562 316.640044 188.268379 
C 316.171227 188.737197 315.907811 189.373138 315.907811 190.036146 
C 315.907811 190.699154 316.171227 191.335096 316.640044 191.803913 
C 317.108861 192.27273 317.744803 192.536146 318.407811 192.536146 
z
" style="fill:#4682b4;stroke:#4682b4;"/>
    <path clip-path="url(#pab072abca4)" d="M 252.560616 207.184259 
C 253.223624 207.184259 253.859566 206.920843 254.328383 206.452026 
C 254.7972 205.983209 255.060616 205.347267 255.060616 204.684259 
C 255.060616 204.021251 254.7972 203.385309 254.328383 202.916492 
C 253.859566 202.447675 253.223624 202.184259 252.560616 202.184259 
C 251.897608 202.184259 251.261667 202.447675 250.792849 202.916492 
C 250.324032 203.385309 250.060616 204.021251 250.060616 204.684259 
C 250.060616 205.347267 250.324032 205.983209 250.792849 206.452026 
C 251.261667 206.920843 251.897608 207.184259 252.560616 207.184259 
z
" style="fill:#4682b4;stroke:#4682b4;"/>
    <path clip-path="url(#pab072abca4)" d="M 266.972635 157.088816 
C 267.635643 157.088816 268.271585 156.8254 268.740402 156.356583 
C 269.209219 155.887766 269.472635 155.251824 269.472635 154.588816 
C 269.472635 153.925808 269.209219 153.289866 268.740402 152.821049 
C 268.271585 152.352232 267.635643 152.088816 266.972635 152.088816 
C 266.309627 152.088816 265.673685 152.352232 265.204868 152.821049 
C 264.736051 153.289866 264.472635 153.925808 264.472635 154.588816 
C 264.472635 155.251824 264.736051 155.887766 265.204868 156.356583 
C 265.673685 156.8254 266.309627 157.088816 266.972635 157.088816 
z
" style="fill:#4682b4;stroke:#4682b4;"/>
    <path clip-path="url(#pab072abca4)" d="M 352.153275 123.898578 
C 352.816283 123.898578 353.452225 123.635163 353.921042 123.166345 
C 354.38986 122.697528 354.653275 122.061586 354.653275 121.398578 
C 354.653275 120.735571 354.38986 120.099629 353.921042 119.630812 
C 353.452225 119.161994 352.816283 118.898578 352.153275 118.898578 
C 351.490268 118.898578 350.854326 119.161994 350.385508 119.630812 
C 349.916691 120.099629 349.653275 120.735571 349.653275 121.398578 
C 349.653275 122.061586 349.916691 122.697528 350.385508 123.166345 
C 350.854326 123.635163 351.490268 123.898578 352.153275 123.898578 
z
" style="fill:#4682b4;stroke:#4682b4;"/>
    <path clip-path="url(#pab072abca4)" d="M 352.575843 107.334582 
C 353.238851 107.334582 353.874793 107.071166 354.34361 106.602349 
C 354.812427 106.133531 355.075843 105.497589 355.075843 104.834582 
C 355.075843 104.171574 354.812427 103.535632 354.34361 103.066815 
C 353.874793 102.597997 353.238851 102.334582 352.575843 102.334582 
C 351.912835 102.334582 351.276893 102.597997 350.808076 103.066815 
C 350.339259 103.535632 350.075843 104.171574 350.075843 104.834582 
C 350.075843 105.497589 350.339259 106.133531 350.808076 106.602349 
C 351.276893 107.071166 351.912835 107.334582 352.575843 107.334582 
z
" style="fill:#4682b4;stroke:#4682b4;"/>
    <path clip-path="url(#pab072abca4)" d="M 305.841495 97.553083 
C 306.504503 97.553083 307.140445 97.289667 307.609262 96.82085 
C 308.07808 96.352033 308.341495 95.716091 308.341495 95.053083 
C 308.341495 94.390075 308.07808 93.754133 307.609262 93.285316 
C 307.140445 92.816499 306.504503 92.553083 305.841495 92.553083 
C 305.178488 92.553083 304.542546 92.816499 304.073729 93.285316 
C 303.604911 93.754133 303.341495 94.390075 303.341495 95.053083 
C 303.341495 95.716091 303.604911 96.352033 304.073729 96.82085 
C 304.542546 97.289667 305.178488 97.553083 305.841495 97.553083 
z
" style="fill:#4682b4;stroke:#4682b4;"/>
    <path clip-path="url(#pab072abca4)" d="M 347.258688 198.486348 
C 347.921696 198.486348 348.557638 198.222933 349.026455 197.754115 
C 349.495272 197.285298 349.758688 196.649356 349.758688 195.986348 
C 349.758688 195.323341 349.495272 194.687399 349.026455 194.218582 
C 348.557638 193.749764 347.921696 193.486348 347.258688 193.486348 
C 346.59568 193.486348 345.959738 193.749764 345.490921 194.218582 
C 345.022104 194.687399 344.758688 195.323341 344.758688 195.986348 
C 344.758688 196.649356 345.022104 197.285298 345.490921 197.754115 
C 345.959738 198.222933 346.59568 198.486348 347.258688 198.486348 
z
" style="fill:#4682b4;stroke:#4682b4;"/>
    <path clip-path="url(#pab072abca4)" d="M 282.255489 221.958462 
C 282.918496 221.958462 283.554438 221.695046 284.023255 221.226229 
C 284.492073 220.757411 284.755489 220.12147 284.755489 219.458462 
C 284.755489 218.795454 284.492073 218.159512 284.023255 217.690695 
C 283.554438 217.221878 282.918496 216.958462 282.255489 216.958462 
C 281.592481 216.958462 280.956539 217.221878 280.487722 217.690695 
C 280.018904 218.159512 279.755489 218.795454 279.755489 219.458462 
C 279.755489 220.12147 280.018904 220.757411 280.487722 221.226229 
C 280.956539 221.695046 281.592481 221.958462 282.255489 221.958462 
z
" style="fill:#4682b4;stroke:#4682b4;"/>
    <path clip-path="url(#pab072abca4)" d="M 271.067747 261.380363 
C 271.730754 261.380363 272.366696 261.116947 272.835514 260.64813 
C 273.304331 260.179313 273.567747 259.543371 273.567747 258.880363 
C 273.567747 258.217355 273.304331 257.581413 272.835514 257.112596 
C 272.366696 256.643779 271.730754 256.380363 271.067747 256.380363 
C 270.404739 256.380363 269.768797 256.643779 269.29998 257.112596 
C 268.831162 257.581413 268.567747 258.217355 268.567747 258.880363 
C 268.567747 259.543371 268.831162 260.179313 269.29998 260.64813 
C 269.768797 261.116947 270.404739 261.380363 271.067747 261.380363 
z
" style="fill:#4682b4;stroke:#4682b4;"/>
    <path clip-path="url(#pab072abca4)" d="M 393.372975 138.543129 
C 394.035983 138.543129 394.671925 138.279713 395.140742 137.810896 
C 395.609559 137.342079 395.872975 136.706137 395.872975 136.043129 
C 395.872975 135.380121 395.609559 134.744179 395.140742 134.275362 
C 394.671925 133.806545 394.035983 133.543129 393.372975 133.543129 
C 392.709967 133.543129 392.074026 133.806545 391.605208 134.275362 
C 391.136391 134.744179 390.872975 135.380121 390.872975 136.043129 
C 390.872975 136.706137 391.136391 137.342079 391.605208 137.810896 
C 392.074026 138.279713 392.709967 138.543129 393.372975 138.543129 
z
" style="fill:#4682b4;stroke:#4682b4;"/>
    <path clip-path="url(#pab072abca4)" d="M 231.363791 104.012449 
C 232.026799 104.012449 232.662741 103.749033 233.131558 103.280216 
C 233.600375 102.811399 233.863791 102.175457 233.863791 101.512449 
C 233.863791 100.849441 233.600375 100.2135 233.131558 99.744682 
C 232.662741 99.275865 232.026799 99.012449 231.363791 99.012449 
C 230.700784 99.012449 230.064842 99.275865 229.596024 99.744682 
C 229.127207 100.2135 228.863791 100.849441 228.863791 101.512449 
C 228.863791 102.175457 229.127207 102.811399 229.596024 103.280216 
C 230.064842 103.749033 230.700784 104.012449 231.363791 104.012449 
z
" style="fill:#4682b4;stroke:#4682b4;"/>
    <path clip-path="url(#pab072abca4)" d="M 262.951172 109.710047 
C 263.61418 109.710047 264.250122 109.446631 264.718939 108.977814 
C 265.187756 108.508997 265.451172 107.873055 265.451172 107.210047 
C 265.451172 106.547039 265.187756 105.911097 264.718939 105.44228 
C 264.250122 104.973463 263.61418 104.710047 262.951172 104.710047 
C 262.288164 104.710047 261.652223 104.973463 261.183405 105.44228 
C 260.714588 105.911097 260.451172 106.547039 260.451172 107.210047 
C 260.451172 107.873055 260.714588 108.508997 261.183405 108.977814 
C 261.652223 109.446631 262.288164 109.710047 262.951172 109.710047 
z
" style="fill:#4682b4;stroke:#4682b4;"/>
    <path clip-path="url(#pab072abca4)" d="M 253.019892 190.530716 
C 253.6829 190.530716 254.318842 190.2673 254.787659 189.798483 
C 255.256476 189.329666 255.519892 188.693724 255.519892 188.030716 
C 255.519892 187.367708 255.256476 186.731766 254.787659 186.262949 
C 254.318842 185.794132 253.6829 185.530716 253.019892 185.530716 
C 252.356884 185.530716 251.720942 185.794132 251.252125 186.262949 
C 250.783308 186.731766 250.519892 187.367708 250.519892 188.030716 
C 250.519892 188.693724 250.783308 189.329666 251.252125 189.798483 
C 251.720942 190.2673 252.356884 190.530716 253.019892 190.530716 
z
" style="fill:#4682b4;stroke:#4682b4;"/>
    <path clip-path="url(#pab072abca4)" d="M 152.267469 289.587797 
C 152.930477 289.587797 153.566419 289.324381 154.035236 288.855564 
C 154.504054 288.386746 154.767469 287.750804 154.767469 287.087797 
C 154.767469 286.424789 154.504054 285.788847 154.035236 285.32003 
C 153.566419 284.851213 152.930477 284.587797 152.267469 284.587797 
C 151.604462 284.587797 150.96852 284.851213 150.499703 285.32003 
C 150.030885 285.788847 149.767469 286.424789 149.767469 287.087797 
C 149.767469 287.750804 150.030885 288.386746 150.499703 288.855564 
C 150.96852 289.324381 151.604462 289.587797 152.267469 289.587797 
z
" style="fill:#4682b4;stroke:#4682b4;"/>
    <path clip-path="url(#pab072abca4)" d="M 125.707992 277.182031 
C 126.371 277.182031 127.006942 276.918616 127.475759 276.449798 
C 127.944576 275.980981 128.207992 275.345039 128.207992 274.682031 
C 128.207992 274.019024 127.944576 273.383082 127.475759 272.914264 
C 127.006942 272.445447 126.371 272.182031 125.707992 272.182031 
C 125.044985 272.182031 124.409043 272.445447 123.940225 272.914264 
C 123.471408 273.383082 123.207992 274.019024 123.207992 274.682031 
C 123.207992 275.345039 123.471408 275.980981 123.940225 276.449798 
C 124.409043 276.918616 125.044985 277.182031 125.707992 277.182031 
z
" style="fill:#4682b4;stroke:#4682b4;"/>
    <path clip-path="url(#pab072abca4)" d="M 362.458388 56.068 
C 363.121396 56.068 363.757338 55.804584 364.226155 55.335767 
C 364.694973 54.86695 364.958388 54.231008 364.958388 53.568 
C 364.958388 52.904992 364.694973 52.26905 364.226155 51.800233 
C 363.757338 51.331416 363.121396 51.068 362.458388 51.068 
C 361.795381 51.068 361.159439 51.331416 360.690621 51.800233 
C 360.221804 52.26905 359.958388 52.904992 359.958388 53.568 
C 359.958388 54.231008 360.221804 54.86695 360.690621 55.335767 
C 361.159439 55.804584 361.795381 56.068 362.458388 56.068 
z
" style="fill:#4682b4;stroke:#4682b4;"/>
    <path clip-path="url(#pab072abca4)" d="M 398.487273 188.943573 
C 399.15028 188.943573 399.786222 188.680158 400.25504 188.21134 
C 400.723857 187.742523 400.987273 187.106581 400.987273 186.443573 
C 400.987273 185.780566 400.723857 185.144624 400.25504 184.675806 
C 399.786222 184.206989 399.15028 183.943573 398.487273 183.943573 
C 397.824265 183.943573 397.188323 184.206989 396.719506 184.675806 
C 396.250688 185.144624 395.987273 185.780566 395.987273 186.443573 
C 395.987273 187.106581 396.250688 187.742523 396.719506 188.21134 
C 397.188323 188.680158 397.824265 188.943573 398.487273 188.943573 
z
" style="fill:#4682b4;stroke:#4682b4;"/>
    <path clip-path="url(#pab072abca4)" d="M 183.504006 296.861158 
C 184.167013 296.861158 184.802955 296.597742 185.271773 296.128925 
C 185.74059 295.660108 186.004006 295.024166 186.004006 294.361158 
C 186.004006 293.69815 185.74059 293.062208 185.271773 292.593391 
C 184.802955 292.124574 184.167013 291.861158 183.504006 291.861158 
C 182.840998 291.861158 182.205056 292.124574 181.736239 292.593391 
C 181.267422 293.062208 181.004006 293.69815 181.004006 294.361158 
C 181.004006 295.024166 181.267422 295.660108 181.736239 296.128925 
C 182.205056 296.597742 182.840998 296.861158 183.504006 296.861158 
z
" style="fill:#4682b4;stroke:#4682b4;"/>
    <path clip-path="url(#pab072abca4)" d="M 230.800882 185.473808 
C 231.463889 185.473808 232.099831 185.210393 232.568649 184.741575 
C 233.037466 184.272758 233.300882 183.636816 233.300882 182.973808 
C 233.300882 182.310801 233.037466 181.674859 232.568649 181.206041 
C 232.099831 180.737224 231.463889 180.473808 230.800882 180.473808 
C 230.137874 180.473808 229.501932 180.737224 229.033115 181.206041 
C 228.564297 181.674859 228.300882 182.310801 228.300882 182.973808 
C 228.300882 183.636816 228.564297 184.272758 229.033115 184.741575 
C 229.501932 185.210393 230.137874 185.473808 230.800882 185.473808 
z
" style="fill:#4682b4;stroke:#4682b4;"/>
    <path clip-path="url(#pab072abca4)" d="M 249.009961 293.707133 
C 249.672969 293.707133 250.308911 293.443717 250.777728 292.9749 
C 251.246545 292.506082 251.509961 291.87014 251.509961 291.207133 
C 251.509961 290.544125 251.246545 289.908183 250.777728 289.439366 
C 250.308911 288.970548 249.672969 288.707133 249.009961 288.707133 
C 248.346953 288.707133 247.711011 288.970548 247.242194 289.439366 
C 246.773377 289.908183 246.509961 290.544125 246.509961 291.207133 
C 246.509961 291.87014 246.773377 292.506082 247.242194 292.9749 
C 247.711011 293.443717 248.346953 293.707133 249.009961 293.707133 
z
" style="fill:#4682b4;stroke:#4682b4;"/>
    <path clip-path="url(#pab072abca4)" d="M 392.832721 168.274543 
C 393.495729 168.274543 394.131671 168.011127 394.600488 167.54231 
C 395.069305 167.073493 395.332721 166.437551 395.332721 165.774543 
C 395.332721 165.111535 395.069305 164.475593 394.600488 164.006776 
C 394.131671 163.537959 393.495729 163.274543 392.832721 163.274543 
C 392.169713 163.274543 391.533771 163.537959 391.064954 164.006776 
C 390.596137 164.475593 390.332721 165.111535 390.332721 165.774543 
C 390.332721 166.437551 390.596137 167.073493 391.064954 167.54231 
C 391.533771 168.011127 392.169713 168.274543 392.832721 168.274543 
z
" style="fill:#4682b4;stroke:#4682b4;"/>
    <path clip-path="url(#pab072abca4)" d="M 216.761357 297.988 
C 217.424365 297.988 218.060307 297.724584 218.529124 297.255767 
C 218.997941 296.78695 219.261357 296.151008 219.261357 295.488 
C 219.261357 294.824992 218.997941 294.18905 218.529124 293.720233 
C 218.060307 293.251416 217.424365 292.988 216.761357 292.988 
C 216.098349 292.988 215.462408 293.251416 214.99359 293.720233 
C 214.524773 294.18905 214.261357 294.824992 214.261357 295.488 
C 214.261357 296.151008 214.524773 296.78695 214.99359 297.255767 
C 215.462408 297.724584 216.098349 297.988 216.761357 297.988 
z
" style="fill:#4682b4;stroke:#4682b4;"/>
    <path clip-path="url(#pab072abca4)" d="M 102.627505 219.992972 
C 103.290513 219.992972 103.926455 219.729556 104.395272 219.260739 
C 104.86409 218.791921 105.127505 218.155979 105.127505 217.492972 
C 105.127505 216.829964 104.86409 216.194022 104.395272 215.725205 
C 103.926455 215.256387 103.290513 214.992972 102.627505 214.992972 
C 101.964498 214.992972 101.328556 215.256387 100.859738 215.725205 
C 100.390921 216.194022 100.127505 216.829964 100.127505 217.492972 
C 100.127505 218.155979 100.390921 218.791921 100.859738 219.260739 
C 101.328556 219.729556 101.964498 219.992972 102.627505 219.992972 
z
" style="fill:#4682b4;stroke:#4682b4;"/>
    <path clip-path="url(#pab072abca4)" d="M 122.519719 140.086859 
C 123.182727 140.086859 123.818669 139.823443 124.287486 139.354626 
C 124.756303 138.885809 125.019719 138.249867 125.019719 137.586859 
C 125.019719 136.923851 124.756303 136.287909 124.287486 135.819092 
C 123.818669 135.350275 123.182727 135.086859 122.519719 135.086859 
C 121.856711 135.086859 121.22077 135.350275 120.751952 135.819092 
C 120.283135 136.287909 120.019719 136.923851 120.019719 137.586859 
C 120.019719 138.249867 120.283135 138.885809 120.751952 139.354626 
C 121.22077 139.823443 121.856711 140.086859 122.519719 140.086859 
z
" style="fill:#4682b4;stroke:#4682b4;"/>
    <path clip-path="url(#pab072abca4)" d="M 86.858971 164.990768 
C 87.521979 164.990768 88.157921 164.727352 88.626738 164.258535 
C 89.095555 163.789718 89.358971 163.153776 89.358971 162.490768 
C 89.358971 161.82776 89.095555 161.191818 88.626738 160.723001 
C 88.157921 160.254184 87.521979 159.990768 86.858971 159.990768 
C 86.195963 159.990768 85.560022 160.254184 85.091204 160.723001 
C 84.622387 161.191818 84.358971 161.82776 84.358971 162.490768 
C 84.358971 163.153776 84.622387 163.789718 85.091204 164.258535 
C 85.560022 164.727352 86.195963 164.990768 86.858971 164.990768 
z
" style="fill:#4682b4;stroke:#4682b4;"/>
    <path clip-path="url(#pab072abca4)" d="M 73.832727 247.761946 
C 74.495735 247.761946 75.131677 247.498531 75.600494 247.029713 
C 76.069312 246.560896 76.332727 245.924954 76.332727 245.261946 
C 76.332727 244.598939 76.069312 243.962997 75.600494 243.494179 
C 75.131677 243.025362 74.495735 242.761946 73.832727 242.761946 
C 73.16972 242.761946 72.533778 243.025362 72.06496 243.494179 
C 71.596143 243.962997 71.332727 244.598939 71.332727 245.261946 
C 71.332727 245.924954 71.596143 246.560896 72.06496 247.029713 
C 72.533778 247.498531 73.16972 247.761946 73.832727 247.761946 
z
" style="fill:#4682b4;stroke:#4682b4;"/>
    <path clip-path="url(#pab072abca4)" d="M 147.920768 191.650831 
C 148.583775 191.650831 149.219717 191.387415 149.688534 190.918598 
C 150.157352 190.449781 150.420768 189.813839 150.420768 189.150831 
C 150.420768 188.487823 150.157352 187.851881 149.688534 187.383064 
C 149.219717 186.914247 148.583775 186.650831 147.920768 186.650831 
C 147.25776 186.650831 146.621818 186.914247 146.153001 187.383064 
C 145.684183 187.851881 145.420768 188.487823 145.420768 189.150831 
C 145.420768 189.813839 145.684183 190.449781 146.153001 190.918598 
C 146.621818 191.387415 147.25776 191.650831 147.920768 191.650831 
z
" style="fill:#4682b4;stroke:#4682b4;"/>
    <path clip-path="url(#pab072abca4)" d="M 164.498523 209.002272 
C 165.161531 209.002272 165.797473 208.738857 166.26629 208.270039 
C 166.735108 207.801222 166.998523 207.16528 166.998523 206.502272 
C 166.998523 205.839265 166.735108 205.203323 166.26629 204.734505 
C 165.797473 204.265688 165.161531 204.002272 164.498523 204.002272 
C 163.835516 204.002272 163.199574 204.265688 162.730756 204.734505 
C 162.261939 205.203323 161.998523 205.839265 161.998523 206.502272 
C 161.998523 207.16528 162.261939 207.801222 162.730756 208.270039 
C 163.199574 208.738857 163.835516 209.002272 164.498523 209.002272 
z
" style="fill:#4682b4;stroke:#4682b4;"/>
    <path clip-path="url(#pab072abca4)" d="M 115.626772 254.822864 
C 116.28978 254.822864 116.925722 254.559448 117.394539 254.090631 
C 117.863357 253.621814 118.126772 252.985872 118.126772 252.322864 
C 118.126772 251.659856 117.863357 251.023915 117.394539 250.555097 
C 116.925722 250.08628 116.28978 249.822864 115.626772 249.822864 
C 114.963765 249.822864 114.327823 250.08628 113.859005 250.555097 
C 113.390188 251.023915 113.126772 251.659856 113.126772 252.322864 
C 113.126772 252.985872 113.390188 253.621814 113.859005 254.090631 
C 114.327823 254.559448 114.963765 254.822864 115.626772 254.822864 
z
" style="fill:#4682b4;stroke:#4682b4;"/>
    <path clip-path="url(#pab072abca4)" d="M 293.465736 251.256197 
C 294.128744 251.256197 294.764686 250.992781 295.233503 250.523964 
C 295.70232 250.055146 295.965736 249.419204 295.965736 248.756197 
C 295.965736 248.093189 295.70232 247.457247 295.233503 246.98843 
C 294.764686 246.519612 294.128744 246.256197 293.465736 246.256197 
C 292.802728 246.256197 292.166786 246.519612 291.697969 246.98843 
C 291.229152 247.457247 290.965736 248.093189 290.965736 248.756197 
C 290.965736 249.419204 291.229152 250.055146 291.697969 250.523964 
C 292.166786 250.992781 292.802728 251.256197 293.465736 251.256197 
z
" style="fill:#4682b4;stroke:#4682b4;"/>
    <path clip-path="url(#pab072abca4)" d="M 190.473612 178.231046 
C 191.13662 178.231046 191.772562 177.96763 192.241379 177.498813 
C 192.710197 177.029996 192.973612 176.394054 192.973612 175.731046 
C 192.973612 175.068038 192.710197 174.432096 192.241379 173.963279 
C 191.772562 173.494462 191.13662 173.231046 190.473612 173.231046 
C 189.810605 173.231046 189.174663 173.494462 188.705846 173.963279 
C 188.237028 174.432096 187.973612 175.068038 187.973612 175.731046 
C 187.973612 176.394054 188.237028 177.029996 188.705846 177.498813 
C 189.174663 177.96763 189.810605 178.231046 190.473612 178.231046 
z
" style="fill:#4682b4;stroke:#4682b4;"/>
    <path clip-path="url(#pab072abca4)" d="M 204.300924 250.403211 
C 204.963931 250.403211 205.599873 250.139795 206.068691 249.670977 
C 206.537508 249.20216 206.800924 248.566218 206.800924 247.903211 
C 206.800924 247.240203 206.537508 246.604261 206.068691 246.135444 
C 205.599873 245.666626 204.963931 245.403211 204.300924 245.403211 
C 203.637916 245.403211 203.001974 245.666626 202.533157 246.135444 
C 202.064339 246.604261 201.800924 247.240203 201.800924 247.903211 
C 201.800924 248.566218 202.064339 249.20216 202.533157 249.670977 
C 203.001974 250.139795 203.637916 250.403211 204.300924 250.403211 
z
" style="fill:#4682b4;stroke:#4682b4;"/>
    <path clip-path="url(#pab072abca4)" d="M 188.082559 239.158579 
C 188.745567 239.158579 189.381509 238.895163 189.850326 238.426346 
C 190.319143 237.957528 190.582559 237.321587 190.582559 236.658579 
C 190.582559 235.995571 190.319143 235.359629 189.850326 234.890812 
C 189.381509 234.421995 188.745567 234.158579 188.082559 234.158579 
C 187.419551 234.158579 186.783609 234.421995 186.314792 234.890812 
C 185.845975 235.359629 185.582559 235.995571 185.582559 236.658579 
C 185.582559 237.321587 185.845975 237.957528 186.314792 238.426346 
C 186.783609 238.895163 187.419551 239.158579 188.082559 239.158579 
z
" style="fill:#4682b4;stroke:#4682b4;"/>
   </g>
   <g id="patch_81">
    <path d="M 57.6 307.584 
L 57.6 41.472 
" style="fill:none;stroke:#000000;stroke-linecap:square;stroke-linejoin:miter;stroke-width:0.8;"/>
   </g>
   <g id="patch_82">
    <path d="M 414.72 307.584 
L 414.72 41.472 
" style="fill:none;stroke:#000000;stroke-linecap:square;stroke-linejoin:miter;stroke-width:0.8;"/>
   </g>
   <g id="patch_83">
    <path d="M 57.6 307.584 
L 414.72 307.584 
" style="fill:none;stroke:#000000;stroke-linecap:square;stroke-linejoin:miter;stroke-width:0.8;"/>
   </g>
   <g id="patch_84">
    <path d="M 57.6 41.472 
L 414.72 41.472 
" style="fill:none;stroke:#000000;stroke-linecap:square;stroke-linejoin:miter;stroke-width:0.8;"/>
   </g>
  </g>
 </g>
 <defs>
  <clipPath id="pab072abca4">
   <rect height="266.112" width="357.12" x="57.6" y="41.472"/>
  </clipPath>
 </defs>
</svg>
