<?xml version="1.0" encoding="UTF-8"?>
<svg xmlns="http://www.w3.org/2000/svg" xmlns:xlink="http://www.w3.org/1999/xlink" width="600pt" height="600pt" viewBox="0 0 600 600" version="1.1">
<g id="surface1">
<rect x="0" y="0" width="600" height="600" style="fill:rgb(100%,100%,100%);fill-opacity:1;stroke:none;"/>
<path style="fill:none;stroke-width:1;stroke-linecap:butt;stroke-linejoin:miter;stroke:rgb(26.666667%,26.666667%,26.666667%);stroke-opacity:1;stroke-miterlimit:10;" d="M 412.566406 345.746094 L 441.871094 264.101563 "/>
<path style="fill:none;stroke-width:1;stroke-linecap:butt;stroke-linejoin:miter;stroke:rgb(26.666667%,26.666667%,26.666667%);stroke-opacity:1;stroke-miterlimit:10;" d="M 412.566406 345.746094 L 328.289063 230.195313 "/>
<path style="fill:none;stroke-width:1;stroke-linecap:butt;stroke-linejoin:miter;stroke:rgb(26.666667%,26.666667%,26.666667%);stroke-opacity:1;stroke-miterlimit:10;" d="M 412.566406 345.746094 L 353.148438 346.15625 "/>
<path style="fill:none;stroke-width:1;stroke-linecap:butt;stroke-linejoin:miter;stroke:rgb(26.666667%,26.666667%,26.666667%);stroke-opacity:1;stroke-miterlimit:10;" d="M 412.566406 345.746094 L 500.078125 422.984375 "/>
<path style="fill:none;stroke-width:1;stroke-linecap:butt;stroke-linejoin:miter;stroke:rgb(26.666667%,26.666667%,26.666667%);stroke-opacity:1;stroke-miterlimit:10;" d="M 412.566406 345.746094 L 500.808594 461.328125 "/>
<path style="fill:none;stroke-width:1;stroke-linecap:butt;stroke-linejoin:miter;stroke:rgb(26.666667%,26.666667%,26.666667%);stroke-opacity:1;stroke-miterlimit:10;" d="M 412.566406 345.746094 L 420.195313 483.96875 "/>
<path style="fill:none;stroke-width:1;stroke-linecap:butt;stroke-linejoin:miter;stroke:rgb(26.666667%,26.666667%,26.666667%);stroke-opacity:1;stroke-miterlimit:10;" d="M 412.566406 345.746094 L 491.636719 250.328125 "/>
<path style="fill:none;stroke-width:1;stroke-linecap:butt;stroke-linejoin:miter;stroke:rgb(26.666667%,26.666667%,26.666667%);stroke-opacity:1;stroke-miterlimit:10;" d="M 412.566406 345.746094 L 379.511719 195.996094 "/>
<path style="fill:none;stroke-width:1;stroke-linecap:butt;stroke-linejoin:miter;stroke:rgb(26.666667%,26.666667%,26.666667%);stroke-opacity:1;stroke-miterlimit:10;" d="M 412.566406 345.746094 L 571.179688 389.085938 "/>
<path style="fill:none;stroke-width:1;stroke-linecap:butt;stroke-linejoin:miter;stroke:rgb(26.666667%,26.666667%,26.666667%);stroke-opacity:1;stroke-miterlimit:10;" d="M 412.566406 345.746094 L 291.726563 469.015625 "/>
<path style="fill:none;stroke-width:1;stroke-linecap:butt;stroke-linejoin:miter;stroke:rgb(26.666667%,26.666667%,26.666667%);stroke-opacity:1;stroke-miterlimit:10;" d="M 412.566406 345.746094 L 346.210938 455.828125 "/>
<path style="fill:none;stroke-width:1;stroke-linecap:butt;stroke-linejoin:miter;stroke:rgb(26.666667%,26.666667%,26.666667%);stroke-opacity:1;stroke-miterlimit:10;" d="M 412.566406 345.746094 L 329.082031 268.742188 "/>
<path style="fill:none;stroke-width:1;stroke-linecap:butt;stroke-linejoin:miter;stroke:rgb(26.666667%,26.666667%,26.666667%);stroke-opacity:1;stroke-miterlimit:10;" d="M 412.566406 345.746094 L 580 272.417969 "/>
<path style="fill:none;stroke-width:1;stroke-linecap:butt;stroke-linejoin:miter;stroke:rgb(26.666667%,26.666667%,26.666667%);stroke-opacity:1;stroke-miterlimit:10;" d="M 412.566406 345.746094 L 290.757813 280.449219 "/>
<path style="fill:none;stroke-width:1;stroke-linecap:butt;stroke-linejoin:miter;stroke:rgb(26.666667%,26.666667%,26.666667%);stroke-opacity:1;stroke-miterlimit:10;" d="M 412.566406 345.746094 L 570.246094 320.261719 "/>
<path style="fill:none;stroke-width:1;stroke-linecap:butt;stroke-linejoin:miter;stroke:rgb(26.666667%,26.666667%,26.666667%);stroke-opacity:1;stroke-miterlimit:10;" d="M 412.566406 345.746094 L 221.195313 297.214844 "/>
<path style="fill:none;stroke-width:1;stroke-linecap:butt;stroke-linejoin:miter;stroke:rgb(26.666667%,26.666667%,26.666667%);stroke-opacity:1;stroke-miterlimit:10;" d="M 441.871094 264.101563 L 328.289063 230.195313 "/>
<path style="fill:none;stroke-width:1;stroke-linecap:butt;stroke-linejoin:miter;stroke:rgb(26.666667%,26.666667%,26.666667%);stroke-opacity:1;stroke-miterlimit:10;" d="M 441.871094 264.101563 L 353.148438 346.15625 "/>
<path style="fill:none;stroke-width:1;stroke-linecap:butt;stroke-linejoin:miter;stroke:rgb(26.666667%,26.666667%,26.666667%);stroke-opacity:1;stroke-miterlimit:10;" d="M 441.871094 264.101563 L 491.636719 250.328125 "/>
<path style="fill:none;stroke-width:1;stroke-linecap:butt;stroke-linejoin:miter;stroke:rgb(26.666667%,26.666667%,26.666667%);stroke-opacity:1;stroke-miterlimit:10;" d="M 441.871094 264.101563 L 329.082031 268.742188 "/>
<path style="fill:none;stroke-width:1;stroke-linecap:butt;stroke-linejoin:miter;stroke:rgb(26.666667%,26.666667%,26.666667%);stroke-opacity:1;stroke-miterlimit:10;" d="M 441.871094 264.101563 L 580 272.417969 "/>
<path style="fill:none;stroke-width:1;stroke-linecap:butt;stroke-linejoin:miter;stroke:rgb(26.666667%,26.666667%,26.666667%);stroke-opacity:1;stroke-miterlimit:10;" d="M 441.871094 264.101563 L 290.757813 280.449219 "/>
<path style="fill:none;stroke-width:1;stroke-linecap:butt;stroke-linejoin:miter;stroke:rgb(26.666667%,26.666667%,26.666667%);stroke-opacity:1;stroke-miterlimit:10;" d="M 441.871094 264.101563 L 570.246094 320.261719 "/>
<path style="fill:none;stroke-width:1;stroke-linecap:butt;stroke-linejoin:miter;stroke:rgb(26.666667%,26.666667%,26.666667%);stroke-opacity:1;stroke-miterlimit:10;" d="M 441.871094 264.101563 L 398.847656 128.175781 "/>
<path style="fill:none;stroke-width:1;stroke-linecap:butt;stroke-linejoin:miter;stroke:rgb(26.666667%,26.666667%,26.666667%);stroke-opacity:1;stroke-miterlimit:10;" d="M 328.289063 230.195313 L 353.148438 346.15625 "/>
<path style="fill:none;stroke-width:1;stroke-linecap:butt;stroke-linejoin:miter;stroke:rgb(26.666667%,26.666667%,26.666667%);stroke-opacity:1;stroke-miterlimit:10;" d="M 328.289063 230.195313 L 491.636719 250.328125 "/>
<path style="fill:none;stroke-width:1;stroke-linecap:butt;stroke-linejoin:miter;stroke:rgb(26.666667%,26.666667%,26.666667%);stroke-opacity:1;stroke-miterlimit:10;" d="M 328.289063 230.195313 L 147.796875 266.152344 "/>
<path style="fill:none;stroke-width:1;stroke-linecap:butt;stroke-linejoin:miter;stroke:rgb(26.666667%,26.666667%,26.666667%);stroke-opacity:1;stroke-miterlimit:10;" d="M 328.289063 230.195313 L 176.390625 225.984375 "/>
<path style="fill:none;stroke-width:1;stroke-linecap:butt;stroke-linejoin:miter;stroke:rgb(26.666667%,26.666667%,26.666667%);stroke-opacity:1;stroke-miterlimit:10;" d="M 328.289063 230.195313 L 245.046875 130.148438 "/>
<path style="fill:none;stroke-width:1;stroke-linecap:butt;stroke-linejoin:miter;stroke:rgb(26.666667%,26.666667%,26.666667%);stroke-opacity:1;stroke-miterlimit:10;" d="M 328.289063 230.195313 L 360.210938 104.738281 "/>
<path style="fill:none;stroke-width:1;stroke-linecap:butt;stroke-linejoin:miter;stroke:rgb(26.666667%,26.666667%,26.666667%);stroke-opacity:1;stroke-miterlimit:10;" d="M 328.289063 230.195313 L 379.511719 195.996094 "/>
<path style="fill:none;stroke-width:1;stroke-linecap:butt;stroke-linejoin:miter;stroke:rgb(26.666667%,26.666667%,26.666667%);stroke-opacity:1;stroke-miterlimit:10;" d="M 328.289063 230.195313 L 329.082031 268.742188 "/>
<path style="fill:none;stroke-width:1;stroke-linecap:butt;stroke-linejoin:miter;stroke:rgb(26.666667%,26.666667%,26.666667%);stroke-opacity:1;stroke-miterlimit:10;" d="M 353.148438 346.15625 L 491.636719 250.328125 "/>
<path style="fill:none;stroke-width:1;stroke-linecap:butt;stroke-linejoin:miter;stroke:rgb(26.666667%,26.666667%,26.666667%);stroke-opacity:1;stroke-miterlimit:10;" d="M 353.148438 346.15625 L 346.210938 455.828125 "/>
<path style="fill:none;stroke-width:1;stroke-linecap:butt;stroke-linejoin:miter;stroke:rgb(26.666667%,26.666667%,26.666667%);stroke-opacity:1;stroke-miterlimit:10;" d="M 353.148438 346.15625 L 329.082031 268.742188 "/>
<path style="fill:none;stroke-width:1;stroke-linecap:butt;stroke-linejoin:miter;stroke:rgb(26.666667%,26.666667%,26.666667%);stroke-opacity:1;stroke-miterlimit:10;" d="M 500.078125 422.984375 L 420.195313 483.96875 "/>
<path style="fill:none;stroke-width:1;stroke-linecap:butt;stroke-linejoin:miter;stroke:rgb(26.666667%,26.666667%,26.666667%);stroke-opacity:1;stroke-miterlimit:10;" d="M 500.078125 422.984375 L 571.179688 389.085938 "/>
<path style="fill:none;stroke-width:1;stroke-linecap:butt;stroke-linejoin:miter;stroke:rgb(26.666667%,26.666667%,26.666667%);stroke-opacity:1;stroke-miterlimit:10;" d="M 500.808594 461.328125 L 420.195313 483.96875 "/>
<path style="fill:none;stroke-width:1;stroke-linecap:butt;stroke-linejoin:miter;stroke:rgb(26.666667%,26.666667%,26.666667%);stroke-opacity:1;stroke-miterlimit:10;" d="M 500.808594 461.328125 L 571.179688 389.085938 "/>
<path style="fill:none;stroke-width:1;stroke-linecap:butt;stroke-linejoin:miter;stroke:rgb(26.666667%,26.666667%,26.666667%);stroke-opacity:1;stroke-miterlimit:10;" d="M 500.808594 461.328125 L 517.851563 580 "/>
<path style="fill:none;stroke-width:1;stroke-linecap:butt;stroke-linejoin:miter;stroke:rgb(26.666667%,26.666667%,26.666667%);stroke-opacity:1;stroke-miterlimit:10;" d="M 420.195313 483.96875 L 517.851563 580 "/>
<path style="fill:none;stroke-width:1;stroke-linecap:butt;stroke-linejoin:miter;stroke:rgb(26.666667%,26.666667%,26.666667%);stroke-opacity:1;stroke-miterlimit:10;" d="M 379.511719 195.996094 L 398.847656 128.175781 "/>
<path style="fill:none;stroke-width:1;stroke-linecap:butt;stroke-linejoin:miter;stroke:rgb(26.666667%,26.666667%,26.666667%);stroke-opacity:1;stroke-miterlimit:10;" d="M 379.511719 195.996094 L 245.046875 130.148438 "/>
<path style="fill:none;stroke-width:1;stroke-linecap:butt;stroke-linejoin:miter;stroke:rgb(26.666667%,26.666667%,26.666667%);stroke-opacity:1;stroke-miterlimit:10;" d="M 379.511719 195.996094 L 217.070313 156.179688 "/>
<path style="fill:none;stroke-width:1;stroke-linecap:butt;stroke-linejoin:miter;stroke:rgb(26.666667%,26.666667%,26.666667%);stroke-opacity:1;stroke-miterlimit:10;" d="M 360.210938 104.738281 L 217.070313 156.179688 "/>
<path style="fill:none;stroke-width:1;stroke-linecap:butt;stroke-linejoin:miter;stroke:rgb(26.666667%,26.666667%,26.666667%);stroke-opacity:1;stroke-miterlimit:10;" d="M 329.082031 268.742188 L 217.070313 156.179688 "/>
<path style="fill:none;stroke-width:1;stroke-linecap:butt;stroke-linejoin:miter;stroke:rgb(26.666667%,26.666667%,26.666667%);stroke-opacity:1;stroke-miterlimit:10;" d="M 155.292969 39.445313 L 245.046875 130.148438 "/>
<path style="fill:none;stroke-width:1;stroke-linecap:butt;stroke-linejoin:miter;stroke:rgb(26.666667%,26.666667%,26.666667%);stroke-opacity:1;stroke-miterlimit:10;" d="M 155.292969 39.445313 L 217.070313 156.179688 "/>
<path style="fill:none;stroke-width:1;stroke-linecap:butt;stroke-linejoin:miter;stroke:rgb(26.666667%,26.666667%,26.666667%);stroke-opacity:1;stroke-miterlimit:10;" d="M 109.480469 68.160156 L 245.046875 130.148438 "/>
<path style="fill:none;stroke-width:1;stroke-linecap:butt;stroke-linejoin:miter;stroke:rgb(26.666667%,26.666667%,26.666667%);stroke-opacity:1;stroke-miterlimit:10;" d="M 109.480469 68.160156 L 217.070313 156.179688 "/>
<path style="fill:none;stroke-width:1;stroke-linecap:butt;stroke-linejoin:miter;stroke:rgb(26.666667%,26.666667%,26.666667%);stroke-opacity:1;stroke-miterlimit:10;" d="M 209.171875 22.609375 L 245.046875 130.148438 "/>
<path style="fill:none;stroke-width:1;stroke-linecap:butt;stroke-linejoin:miter;stroke:rgb(26.666667%,26.666667%,26.666667%);stroke-opacity:1;stroke-miterlimit:10;" d="M 209.171875 22.609375 L 217.070313 156.179688 "/>
<path style="fill:none;stroke-width:1;stroke-linecap:butt;stroke-linejoin:miter;stroke:rgb(26.666667%,26.666667%,26.666667%);stroke-opacity:1;stroke-miterlimit:10;" d="M 290.757813 280.449219 L 217.070313 156.179688 "/>
<path style="fill:none;stroke-width:1;stroke-linecap:butt;stroke-linejoin:miter;stroke:rgb(26.666667%,26.666667%,26.666667%);stroke-opacity:1;stroke-miterlimit:10;" d="M 322.164063 29.910156 L 245.046875 130.148438 "/>
<path style="fill:none;stroke-width:1;stroke-linecap:butt;stroke-linejoin:miter;stroke:rgb(26.666667%,26.666667%,26.666667%);stroke-opacity:1;stroke-miterlimit:10;" d="M 322.164063 29.910156 L 217.070313 156.179688 "/>
<path style="fill:none;stroke-width:1;stroke-linecap:butt;stroke-linejoin:miter;stroke:rgb(26.666667%,26.666667%,26.666667%);stroke-opacity:1;stroke-miterlimit:10;" d="M 266.539063 20 L 245.046875 130.148438 "/>
<path style="fill:none;stroke-width:1;stroke-linecap:butt;stroke-linejoin:miter;stroke:rgb(26.666667%,26.666667%,26.666667%);stroke-opacity:1;stroke-miterlimit:10;" d="M 266.539063 20 L 217.070313 156.179688 "/>
<path style="fill:none;stroke-width:1;stroke-linecap:butt;stroke-linejoin:miter;stroke:rgb(26.666667%,26.666667%,26.666667%);stroke-opacity:1;stroke-miterlimit:10;" d="M 69.667969 200.542969 L 42.46875 327.863281 "/>
<path style="fill:none;stroke-width:1;stroke-linecap:butt;stroke-linejoin:miter;stroke:rgb(26.666667%,26.666667%,26.666667%);stroke-opacity:1;stroke-miterlimit:10;" d="M 69.667969 200.542969 L 147.796875 266.152344 "/>
<path style="fill:none;stroke-width:1;stroke-linecap:butt;stroke-linejoin:miter;stroke:rgb(26.666667%,26.666667%,26.666667%);stroke-opacity:1;stroke-miterlimit:10;" d="M 69.667969 200.542969 L 245.046875 130.148438 "/>
<path style="fill:none;stroke-width:1;stroke-linecap:butt;stroke-linejoin:miter;stroke:rgb(26.666667%,26.666667%,26.666667%);stroke-opacity:1;stroke-miterlimit:10;" d="M 69.667969 200.542969 L 217.070313 156.179688 "/>
<path style="fill:none;stroke-width:1;stroke-linecap:butt;stroke-linejoin:miter;stroke:rgb(26.666667%,26.666667%,26.666667%);stroke-opacity:1;stroke-miterlimit:10;" d="M 69.667969 200.542969 L 92.089844 119.917969 "/>
<path style="fill:none;stroke-width:1;stroke-linecap:butt;stroke-linejoin:miter;stroke:rgb(26.666667%,26.666667%,26.666667%);stroke-opacity:1;stroke-miterlimit:10;" d="M 103.980469 385.511719 L 42.46875 327.863281 "/>
<path style="fill:none;stroke-width:1;stroke-linecap:butt;stroke-linejoin:miter;stroke:rgb(26.666667%,26.666667%,26.666667%);stroke-opacity:1;stroke-miterlimit:10;" d="M 103.980469 385.511719 L 147.796875 266.152344 "/>
<path style="fill:none;stroke-width:1;stroke-linecap:butt;stroke-linejoin:miter;stroke:rgb(26.666667%,26.666667%,26.666667%);stroke-opacity:1;stroke-miterlimit:10;" d="M 103.980469 385.511719 L 221.195313 297.214844 "/>
<path style="fill:none;stroke-width:1;stroke-linecap:butt;stroke-linejoin:miter;stroke:rgb(26.666667%,26.666667%,26.666667%);stroke-opacity:1;stroke-miterlimit:10;" d="M 42.46875 327.863281 L 221.195313 297.214844 "/>
<path style="fill:none;stroke-width:1;stroke-linecap:butt;stroke-linejoin:miter;stroke:rgb(26.666667%,26.666667%,26.666667%);stroke-opacity:1;stroke-miterlimit:10;" d="M 20 136.265625 L 92.089844 119.917969 "/>
<path style="fill:none;stroke-width:1;stroke-linecap:butt;stroke-linejoin:miter;stroke:rgb(26.666667%,26.666667%,26.666667%);stroke-opacity:1;stroke-miterlimit:10;" d="M 20 136.265625 L 217.070313 156.179688 "/>
<path style="fill:none;stroke-width:1;stroke-linecap:butt;stroke-linejoin:miter;stroke:rgb(26.666667%,26.666667%,26.666667%);stroke-opacity:1;stroke-miterlimit:10;" d="M 147.796875 266.152344 L 217.070313 156.179688 "/>
<path style="fill:none;stroke-width:1;stroke-linecap:butt;stroke-linejoin:miter;stroke:rgb(26.666667%,26.666667%,26.666667%);stroke-opacity:1;stroke-miterlimit:10;" d="M 176.390625 225.984375 L 221.195313 297.214844 "/>
<path style="fill:none;stroke-width:1;stroke-linecap:butt;stroke-linejoin:miter;stroke:rgb(26.666667%,26.666667%,26.666667%);stroke-opacity:1;stroke-miterlimit:10;" d="M 176.390625 225.984375 L 217.070313 156.179688 "/>
<path style="fill:none;stroke-width:1;stroke-linecap:butt;stroke-linejoin:miter;stroke:rgb(26.666667%,26.666667%,26.666667%);stroke-opacity:1;stroke-miterlimit:10;" d="M 92.089844 119.917969 L 245.046875 130.148438 "/>
<path style="fill:none;stroke-width:1;stroke-linecap:butt;stroke-linejoin:miter;stroke:rgb(26.666667%,26.666667%,26.666667%);stroke-opacity:1;stroke-miterlimit:10;" d="M 92.089844 119.917969 L 217.070313 156.179688 "/>
<path style="fill:none;stroke-width:1;stroke-linecap:butt;stroke-linejoin:miter;stroke:rgb(26.666667%,26.666667%,26.666667%);stroke-opacity:1;stroke-miterlimit:10;" d="M 398.847656 128.175781 L 245.046875 130.148438 "/>
<path style="fill:none;stroke-width:1;stroke-linecap:butt;stroke-linejoin:miter;stroke:rgb(26.666667%,26.666667%,26.666667%);stroke-opacity:1;stroke-miterlimit:10;" d="M 398.847656 128.175781 L 217.070313 156.179688 "/>
<path style="fill:none;stroke-width:1;stroke-linecap:butt;stroke-linejoin:miter;stroke:rgb(26.666667%,26.666667%,26.666667%);stroke-opacity:1;stroke-miterlimit:10;" d="M 221.195313 297.214844 L 245.046875 130.148438 "/>
<path style="fill:none;stroke-width:1;stroke-linecap:butt;stroke-linejoin:miter;stroke:rgb(26.666667%,26.666667%,26.666667%);stroke-opacity:1;stroke-miterlimit:10;" d="M 221.195313 297.214844 L 217.070313 156.179688 "/>
<path style="fill:none;stroke-width:1;stroke-linecap:butt;stroke-linejoin:miter;stroke:rgb(26.666667%,26.666667%,26.666667%);stroke-opacity:1;stroke-miterlimit:10;" d="M 245.046875 130.148438 L 217.070313 156.179688 "/>
<path style="fill-rule:nonzero;fill:rgb(100%,0%,0%);fill-opacity:1;stroke-width:1;stroke-linecap:butt;stroke-linejoin:miter;stroke:rgb(0%,0%,0%);stroke-opacity:1;stroke-miterlimit:10;" d="M 422.566406 345.746094 C 422.566406 351.269531 418.089844 355.746094 412.566406 355.746094 C 407.042969 355.746094 402.566406 351.269531 402.566406 345.746094 C 402.566406 340.222656 407.042969 335.746094 412.566406 335.746094 C 418.089844 335.746094 422.566406 340.222656 422.566406 345.746094 "/>
<path style="fill-rule:nonzero;fill:rgb(100%,0%,0%);fill-opacity:1;stroke-width:1;stroke-linecap:butt;stroke-linejoin:miter;stroke:rgb(0%,0%,0%);stroke-opacity:1;stroke-miterlimit:10;" d="M 451.871094 264.101563 C 451.871094 269.625 447.394531 274.101563 441.871094 274.101563 C 436.347656 274.101563 431.871094 269.625 431.871094 264.101563 C 431.871094 258.578125 436.347656 254.101563 441.871094 254.101563 C 447.394531 254.101563 451.871094 258.578125 451.871094 264.101563 "/>
<path style="fill-rule:nonzero;fill:rgb(100%,0%,0%);fill-opacity:1;stroke-width:1;stroke-linecap:butt;stroke-linejoin:miter;stroke:rgb(0%,0%,0%);stroke-opacity:1;stroke-miterlimit:10;" d="M 338.289063 230.195313 C 338.289063 235.714844 333.8125 240.195313 328.289063 240.195313 C 322.765625 240.195313 318.289063 235.714844 318.289063 230.195313 C 318.289063 224.671875 322.765625 220.195313 328.289063 220.195313 C 333.8125 220.195313 338.289063 224.671875 338.289063 230.195313 "/>
<path style="fill-rule:nonzero;fill:rgb(100%,0%,0%);fill-opacity:1;stroke-width:1;stroke-linecap:butt;stroke-linejoin:miter;stroke:rgb(0%,0%,0%);stroke-opacity:1;stroke-miterlimit:10;" d="M 363.148438 346.15625 C 363.148438 351.679688 358.671875 356.15625 353.148438 356.15625 C 347.625 356.15625 343.148438 351.679688 343.148438 346.15625 C 343.148438 340.632813 347.625 336.15625 353.148438 336.15625 C 358.671875 336.15625 363.148438 340.632813 363.148438 346.15625 "/>
<path style="fill-rule:nonzero;fill:rgb(100%,0%,0%);fill-opacity:1;stroke-width:1;stroke-linecap:butt;stroke-linejoin:miter;stroke:rgb(0%,0%,0%);stroke-opacity:1;stroke-miterlimit:10;" d="M 510.078125 422.984375 C 510.078125 428.507813 505.601563 432.984375 500.078125 432.984375 C 494.554688 432.984375 490.078125 428.507813 490.078125 422.984375 C 490.078125 417.460938 494.554688 412.984375 500.078125 412.984375 C 505.601563 412.984375 510.078125 417.460938 510.078125 422.984375 "/>
<path style="fill-rule:nonzero;fill:rgb(100%,0%,0%);fill-opacity:1;stroke-width:1;stroke-linecap:butt;stroke-linejoin:miter;stroke:rgb(0%,0%,0%);stroke-opacity:1;stroke-miterlimit:10;" d="M 510.808594 461.328125 C 510.808594 466.851563 506.328125 471.328125 500.808594 471.328125 C 495.285156 471.328125 490.808594 466.851563 490.808594 461.328125 C 490.808594 455.804688 495.285156 451.328125 500.808594 451.328125 C 506.328125 451.328125 510.808594 455.804688 510.808594 461.328125 "/>
<path style="fill-rule:nonzero;fill:rgb(100%,0%,0%);fill-opacity:1;stroke-width:1;stroke-linecap:butt;stroke-linejoin:miter;stroke:rgb(0%,0%,0%);stroke-opacity:1;stroke-miterlimit:10;" d="M 430.195313 483.96875 C 430.195313 489.492188 425.71875 493.96875 420.195313 493.96875 C 414.671875 493.96875 410.195313 489.492188 410.195313 483.96875 C 410.195313 478.445313 414.671875 473.96875 420.195313 473.96875 C 425.71875 473.96875 430.195313 478.445313 430.195313 483.96875 "/>
<path style="fill-rule:nonzero;fill:rgb(100%,0%,0%);fill-opacity:1;stroke-width:1;stroke-linecap:butt;stroke-linejoin:miter;stroke:rgb(0%,0%,0%);stroke-opacity:1;stroke-miterlimit:10;" d="M 501.636719 250.328125 C 501.636719 255.851563 497.15625 260.328125 491.636719 260.328125 C 486.113281 260.328125 481.636719 255.851563 481.636719 250.328125 C 481.636719 244.804688 486.113281 240.328125 491.636719 240.328125 C 497.15625 240.328125 501.636719 244.804688 501.636719 250.328125 "/>
<path style="fill-rule:nonzero;fill:rgb(100%,0%,0%);fill-opacity:1;stroke-width:1;stroke-linecap:butt;stroke-linejoin:miter;stroke:rgb(0%,0%,0%);stroke-opacity:1;stroke-miterlimit:10;" d="M 389.511719 195.996094 C 389.511719 201.515625 385.035156 205.996094 379.511719 205.996094 C 373.988281 205.996094 369.511719 201.515625 369.511719 195.996094 C 369.511719 190.472656 373.988281 185.996094 379.511719 185.996094 C 385.035156 185.996094 389.511719 190.472656 389.511719 195.996094 "/>
<path style="fill-rule:nonzero;fill:rgb(100%,0%,0%);fill-opacity:1;stroke-width:1;stroke-linecap:butt;stroke-linejoin:miter;stroke:rgb(0%,0%,0%);stroke-opacity:1;stroke-miterlimit:10;" d="M 370.210938 104.738281 C 370.210938 110.261719 365.734375 114.738281 360.210938 114.738281 C 354.691406 114.738281 350.210938 110.261719 350.210938 104.738281 C 350.210938 99.21875 354.691406 94.738281 360.210938 94.738281 C 365.734375 94.738281 370.210938 99.21875 370.210938 104.738281 "/>
<path style="fill-rule:nonzero;fill:rgb(100%,0%,0%);fill-opacity:1;stroke-width:1;stroke-linecap:butt;stroke-linejoin:miter;stroke:rgb(0%,0%,0%);stroke-opacity:1;stroke-miterlimit:10;" d="M 581.179688 389.085938 C 581.179688 394.609375 576.699219 399.085938 571.179688 399.085938 C 565.65625 399.085938 561.179688 394.609375 561.179688 389.085938 C 561.179688 383.5625 565.65625 379.085938 571.179688 379.085938 C 576.699219 379.085938 581.179688 383.5625 581.179688 389.085938 "/>
<path style="fill-rule:nonzero;fill:rgb(100%,0%,0%);fill-opacity:1;stroke-width:1;stroke-linecap:butt;stroke-linejoin:miter;stroke:rgb(0%,0%,0%);stroke-opacity:1;stroke-miterlimit:10;" d="M 301.726563 469.015625 C 301.726563 474.539063 297.25 479.015625 291.726563 479.015625 C 286.203125 479.015625 281.726563 474.539063 281.726563 469.015625 C 281.726563 463.496094 286.203125 459.015625 291.726563 459.015625 C 297.25 459.015625 301.726563 463.496094 301.726563 469.015625 "/>
<path style="fill-rule:nonzero;fill:rgb(100%,0%,0%);fill-opacity:1;stroke-width:1;stroke-linecap:butt;stroke-linejoin:miter;stroke:rgb(0%,0%,0%);stroke-opacity:1;stroke-miterlimit:10;" d="M 356.210938 455.828125 C 356.210938 461.351563 351.734375 465.828125 346.210938 465.828125 C 340.691406 465.828125 336.210938 461.351563 336.210938 455.828125 C 336.210938 450.304688 340.691406 445.828125 346.210938 445.828125 C 351.734375 445.828125 356.210938 450.304688 356.210938 455.828125 "/>
<path style="fill-rule:nonzero;fill:rgb(100%,0%,0%);fill-opacity:1;stroke-width:1;stroke-linecap:butt;stroke-linejoin:miter;stroke:rgb(0%,0%,0%);stroke-opacity:1;stroke-miterlimit:10;" d="M 339.082031 268.742188 C 339.082031 274.265625 334.605469 278.742188 329.082031 278.742188 C 323.558594 278.742188 319.082031 274.265625 319.082031 268.742188 C 319.082031 263.222656 323.558594 258.742188 329.082031 258.742188 C 334.605469 258.742188 339.082031 263.222656 339.082031 268.742188 "/>
<path style="fill-rule:nonzero;fill:rgb(100%,0%,0%);fill-opacity:1;stroke-width:1;stroke-linecap:butt;stroke-linejoin:miter;stroke:rgb(0%,0%,0%);stroke-opacity:1;stroke-miterlimit:10;" d="M 165.292969 39.445313 C 165.292969 44.96875 160.816406 49.445313 155.292969 49.445313 C 149.769531 49.445313 145.292969 44.96875 145.292969 39.445313 C 145.292969 33.921875 149.769531 29.445313 155.292969 29.445313 C 160.816406 29.445313 165.292969 33.921875 165.292969 39.445313 "/>
<path style="fill-rule:nonzero;fill:rgb(100%,0%,0%);fill-opacity:1;stroke-width:1;stroke-linecap:butt;stroke-linejoin:miter;stroke:rgb(0%,0%,0%);stroke-opacity:1;stroke-miterlimit:10;" d="M 119.480469 68.160156 C 119.480469 73.683594 115.003906 78.160156 109.480469 78.160156 C 103.957031 78.160156 99.480469 73.683594 99.480469 68.160156 C 99.480469 62.640625 103.957031 58.160156 109.480469 58.160156 C 115.003906 58.160156 119.480469 62.640625 119.480469 68.160156 "/>
<path style="fill-rule:nonzero;fill:rgb(100%,0%,0%);fill-opacity:1;stroke-width:1;stroke-linecap:butt;stroke-linejoin:miter;stroke:rgb(0%,0%,0%);stroke-opacity:1;stroke-miterlimit:10;" d="M 527.851563 580 C 527.851563 585.523438 523.375 590 517.851563 590 C 512.332031 590 507.851563 585.523438 507.851563 580 C 507.851563 574.476563 512.332031 570 517.851563 570 C 523.375 570 527.851563 574.476563 527.851563 580 "/>
<path style="fill-rule:nonzero;fill:rgb(100%,0%,0%);fill-opacity:1;stroke-width:1;stroke-linecap:butt;stroke-linejoin:miter;stroke:rgb(0%,0%,0%);stroke-opacity:1;stroke-miterlimit:10;" d="M 590 272.417969 C 590 277.941406 585.523438 282.417969 580 282.417969 C 574.476563 282.417969 570 277.941406 570 272.417969 C 570 266.894531 574.476563 262.417969 580 262.417969 C 585.523438 262.417969 590 266.894531 590 272.417969 "/>
<path style="fill-rule:nonzero;fill:rgb(100%,0%,0%);fill-opacity:1;stroke-width:1;stroke-linecap:butt;stroke-linejoin:miter;stroke:rgb(0%,0%,0%);stroke-opacity:1;stroke-miterlimit:10;" d="M 219.171875 22.609375 C 219.171875 28.132813 214.695313 32.609375 209.171875 32.609375 C 203.648438 32.609375 199.171875 28.132813 199.171875 22.609375 C 199.171875 17.085938 203.648438 12.609375 209.171875 12.609375 C 214.695313 12.609375 219.171875 17.085938 219.171875 22.609375 "/>
<path style="fill-rule:nonzero;fill:rgb(100%,0%,0%);fill-opacity:1;stroke-width:1;stroke-linecap:butt;stroke-linejoin:miter;stroke:rgb(0%,0%,0%);stroke-opacity:1;stroke-miterlimit:10;" d="M 300.757813 280.449219 C 300.757813 285.972656 296.277344 290.449219 290.757813 290.449219 C 285.234375 290.449219 280.757813 285.972656 280.757813 280.449219 C 280.757813 274.925781 285.234375 270.449219 290.757813 270.449219 C 296.277344 270.449219 300.757813 274.925781 300.757813 280.449219 "/>
<path style="fill-rule:nonzero;fill:rgb(100%,0%,0%);fill-opacity:1;stroke-width:1;stroke-linecap:butt;stroke-linejoin:miter;stroke:rgb(0%,0%,0%);stroke-opacity:1;stroke-miterlimit:10;" d="M 332.164063 29.910156 C 332.164063 35.433594 327.6875 39.910156 322.164063 39.910156 C 316.640625 39.910156 312.164063 35.433594 312.164063 29.910156 C 312.164063 24.386719 316.640625 19.910156 322.164063 19.910156 C 327.6875 19.910156 332.164063 24.386719 332.164063 29.910156 "/>
<path style="fill-rule:nonzero;fill:rgb(100%,0%,0%);fill-opacity:1;stroke-width:1;stroke-linecap:butt;stroke-linejoin:miter;stroke:rgb(0%,0%,0%);stroke-opacity:1;stroke-miterlimit:10;" d="M 580.246094 320.261719 C 580.246094 325.785156 575.769531 330.261719 570.246094 330.261719 C 564.722656 330.261719 560.246094 325.785156 560.246094 320.261719 C 560.246094 314.738281 564.722656 310.261719 570.246094 310.261719 C 575.769531 310.261719 580.246094 314.738281 580.246094 320.261719 "/>
<path style="fill-rule:nonzero;fill:rgb(100%,0%,0%);fill-opacity:1;stroke-width:1;stroke-linecap:butt;stroke-linejoin:miter;stroke:rgb(0%,0%,0%);stroke-opacity:1;stroke-miterlimit:10;" d="M 276.539063 20 C 276.539063 25.523438 272.0625 30 266.539063 30 C 261.015625 30 256.539063 25.523438 256.539063 20 C 256.539063 14.476563 261.015625 10 266.539063 10 C 272.0625 10 276.539063 14.476563 276.539063 20 "/>
<path style="fill-rule:nonzero;fill:rgb(100%,0%,0%);fill-opacity:1;stroke-width:1;stroke-linecap:butt;stroke-linejoin:miter;stroke:rgb(0%,0%,0%);stroke-opacity:1;stroke-miterlimit:10;" d="M 79.667969 200.542969 C 79.667969 206.066406 75.191406 210.542969 69.667969 210.542969 C 64.144531 210.542969 59.667969 206.066406 59.667969 200.542969 C 59.667969 195.019531 64.144531 190.542969 69.667969 190.542969 C 75.191406 190.542969 79.667969 195.019531 79.667969 200.542969 "/>
<path style="fill-rule:nonzero;fill:rgb(100%,0%,0%);fill-opacity:1;stroke-width:1;stroke-linecap:butt;stroke-linejoin:miter;stroke:rgb(0%,0%,0%);stroke-opacity:1;stroke-miterlimit:10;" d="M 113.980469 385.511719 C 113.980469 391.035156 109.503906 395.511719 103.980469 395.511719 C 98.457031 395.511719 93.980469 391.035156 93.980469 385.511719 C 93.980469 379.988281 98.457031 375.511719 103.980469 375.511719 C 109.503906 375.511719 113.980469 379.988281 113.980469 385.511719 "/>
<path style="fill-rule:nonzero;fill:rgb(100%,0%,0%);fill-opacity:1;stroke-width:1;stroke-linecap:butt;stroke-linejoin:miter;stroke:rgb(0%,0%,0%);stroke-opacity:1;stroke-miterlimit:10;" d="M 52.46875 327.863281 C 52.46875 333.386719 47.992188 337.863281 42.46875 337.863281 C 36.945313 337.863281 32.46875 333.386719 32.46875 327.863281 C 32.46875 322.339844 36.945313 317.863281 42.46875 317.863281 C 47.992188 317.863281 52.46875 322.339844 52.46875 327.863281 "/>
<path style="fill-rule:nonzero;fill:rgb(100%,0%,0%);fill-opacity:1;stroke-width:1;stroke-linecap:butt;stroke-linejoin:miter;stroke:rgb(0%,0%,0%);stroke-opacity:1;stroke-miterlimit:10;" d="M 30 136.265625 C 30 141.785156 25.523438 146.265625 20 146.265625 C 14.476563 146.265625 10 141.785156 10 136.265625 C 10 130.742188 14.476563 126.265625 20 126.265625 C 25.523438 126.265625 30 130.742188 30 136.265625 "/>
<path style="fill-rule:nonzero;fill:rgb(100%,0%,0%);fill-opacity:1;stroke-width:1;stroke-linecap:butt;stroke-linejoin:miter;stroke:rgb(0%,0%,0%);stroke-opacity:1;stroke-miterlimit:10;" d="M 157.796875 266.152344 C 157.796875 271.671875 153.316406 276.152344 147.796875 276.152344 C 142.273438 276.152344 137.796875 271.671875 137.796875 266.152344 C 137.796875 260.628906 142.273438 256.152344 147.796875 256.152344 C 153.316406 256.152344 157.796875 260.628906 157.796875 266.152344 "/>
<path style="fill-rule:nonzero;fill:rgb(100%,0%,0%);fill-opacity:1;stroke-width:1;stroke-linecap:butt;stroke-linejoin:miter;stroke:rgb(0%,0%,0%);stroke-opacity:1;stroke-miterlimit:10;" d="M 186.390625 225.984375 C 186.390625 231.507813 181.914063 235.984375 176.390625 235.984375 C 170.867188 235.984375 166.390625 231.507813 166.390625 225.984375 C 166.390625 220.460938 170.867188 215.984375 176.390625 215.984375 C 181.914063 215.984375 186.390625 220.460938 186.390625 225.984375 "/>
<path style="fill-rule:nonzero;fill:rgb(100%,0%,0%);fill-opacity:1;stroke-width:1;stroke-linecap:butt;stroke-linejoin:miter;stroke:rgb(0%,0%,0%);stroke-opacity:1;stroke-miterlimit:10;" d="M 102.089844 119.917969 C 102.089844 125.441406 97.613281 129.917969 92.089844 129.917969 C 86.566406 129.917969 82.089844 125.441406 82.089844 119.917969 C 82.089844 114.394531 86.566406 109.917969 92.089844 109.917969 C 97.613281 109.917969 102.089844 114.394531 102.089844 119.917969 "/>
<path style="fill-rule:nonzero;fill:rgb(100%,0%,0%);fill-opacity:1;stroke-width:1;stroke-linecap:butt;stroke-linejoin:miter;stroke:rgb(0%,0%,0%);stroke-opacity:1;stroke-miterlimit:10;" d="M 408.847656 128.175781 C 408.847656 133.699219 404.371094 138.175781 398.847656 138.175781 C 393.324219 138.175781 388.847656 133.699219 388.847656 128.175781 C 388.847656 122.652344 393.324219 118.175781 398.847656 118.175781 C 404.371094 118.175781 408.847656 122.652344 408.847656 128.175781 "/>
<path style="fill-rule:nonzero;fill:rgb(100%,0%,0%);fill-opacity:1;stroke-width:1;stroke-linecap:butt;stroke-linejoin:miter;stroke:rgb(0%,0%,0%);stroke-opacity:1;stroke-miterlimit:10;" d="M 231.195313 297.214844 C 231.195313 302.738281 226.71875 307.214844 221.195313 307.214844 C 215.671875 307.214844 211.195313 302.738281 211.195313 297.214844 C 211.195313 291.691406 215.671875 287.214844 221.195313 287.214844 C 226.71875 287.214844 231.195313 291.691406 231.195313 297.214844 "/>
<path style="fill-rule:nonzero;fill:rgb(100%,0%,0%);fill-opacity:1;stroke-width:1;stroke-linecap:butt;stroke-linejoin:miter;stroke:rgb(0%,0%,0%);stroke-opacity:1;stroke-miterlimit:10;" d="M 255.046875 130.148438 C 255.046875 135.671875 250.570313 140.148438 245.046875 140.148438 C 239.523438 140.148438 235.046875 135.671875 235.046875 130.148438 C 235.046875 124.628906 239.523438 120.148438 245.046875 120.148438 C 250.570313 120.148438 255.046875 124.628906 255.046875 130.148438 "/>
<path style="fill-rule:nonzero;fill:rgb(100%,0%,0%);fill-opacity:1;stroke-width:1;stroke-linecap:butt;stroke-linejoin:miter;stroke:rgb(0%,0%,0%);stroke-opacity:1;stroke-miterlimit:10;" d="M 227.070313 156.179688 C 227.070313 161.703125 222.59375 166.179688 217.070313 166.179688 C 211.546875 166.179688 207.070313 161.703125 207.070313 156.179688 C 207.070313 150.65625 211.546875 146.179688 217.070313 146.179688 C 222.59375 146.179688 227.070313 150.65625 227.070313 156.179688 "/>
</g>
</svg>
